<mxfile host="app.diagrams.net" modified="2023-05-25T10:59:20.438Z" agent="Mozilla/5.0 (Macintosh; Intel Mac OS X 10.15; rv:109.0) Gecko/20100101 Firefox/113.0" etag="Hn9JWucOmi49PFTe_r4a" version="21.3.3" type="github">
  <diagram name="Page-1" id="2YBvvXClWsGukQMizWep">
    <mxGraphModel dx="994" dy="538" grid="1" gridSize="10" guides="1" tooltips="1" connect="1" arrows="1" fold="1" page="1" pageScale="1" pageWidth="850" pageHeight="1100" math="0" shadow="0">
      <root>
        <mxCell id="0" />
        <mxCell id="1" parent="0" />
        <mxCell id="_VE5QZipBekw-OrBoyfd-1" value="User" style="text;html=1;align=center;verticalAlign=middle;resizable=0;points=[];autosize=1;strokeColor=none;fillColor=none;" vertex="1" parent="1">
          <mxGeometry y="220" width="50" height="30" as="geometry" />
        </mxCell>
        <mxCell id="_VE5QZipBekw-OrBoyfd-6" value="" style="endArrow=classic;html=1;rounded=0;" edge="1" parent="1">
          <mxGeometry width="50" height="50" relative="1" as="geometry">
            <mxPoint x="40" y="234.6" as="sourcePoint" />
            <mxPoint x="80" y="235" as="targetPoint" />
          </mxGeometry>
        </mxCell>
        <mxCell id="_VE5QZipBekw-OrBoyfd-12" style="edgeStyle=orthogonalEdgeStyle;rounded=0;orthogonalLoop=1;jettySize=auto;html=1;entryX=0;entryY=0.5;entryDx=0;entryDy=0;" edge="1" parent="1" source="_VE5QZipBekw-OrBoyfd-7" target="_VE5QZipBekw-OrBoyfd-10">
          <mxGeometry relative="1" as="geometry">
            <Array as="points">
              <mxPoint x="140" y="90" />
            </Array>
          </mxGeometry>
        </mxCell>
        <mxCell id="_VE5QZipBekw-OrBoyfd-32" value="Registration" style="edgeLabel;html=1;align=center;verticalAlign=middle;resizable=0;points=[];" vertex="1" connectable="0" parent="_VE5QZipBekw-OrBoyfd-12">
          <mxGeometry x="0.0038" y="-1" relative="1" as="geometry">
            <mxPoint as="offset" />
          </mxGeometry>
        </mxCell>
        <mxCell id="_VE5QZipBekw-OrBoyfd-7" value="&lt;div&gt;Web App Interface&lt;/div&gt;" style="rounded=0;whiteSpace=wrap;html=1;" vertex="1" parent="1">
          <mxGeometry x="80" y="200" width="110" height="60" as="geometry" />
        </mxCell>
        <mxCell id="_VE5QZipBekw-OrBoyfd-8" value="&lt;div&gt;(Registration,&lt;/div&gt;&lt;div&gt;Login,&lt;/div&gt;&lt;div&gt;Forgot Password)&lt;/div&gt;&lt;div&gt;&lt;br&gt;&lt;/div&gt;" style="text;html=1;align=center;verticalAlign=middle;resizable=0;points=[];autosize=1;strokeColor=none;fillColor=none;" vertex="1" parent="1">
          <mxGeometry x="80" y="265" width="120" height="70" as="geometry" />
        </mxCell>
        <mxCell id="_VE5QZipBekw-OrBoyfd-15" value="" style="edgeStyle=orthogonalEdgeStyle;rounded=0;orthogonalLoop=1;jettySize=auto;html=1;" edge="1" parent="1" source="_VE5QZipBekw-OrBoyfd-16" target="_VE5QZipBekw-OrBoyfd-14">
          <mxGeometry relative="1" as="geometry" />
        </mxCell>
        <mxCell id="_VE5QZipBekw-OrBoyfd-10" value="&lt;div&gt;Backend/Server&lt;/div&gt;" style="rounded=0;whiteSpace=wrap;html=1;" vertex="1" parent="1">
          <mxGeometry x="280" y="60" width="120" height="60" as="geometry" />
        </mxCell>
        <mxCell id="_VE5QZipBekw-OrBoyfd-14" value="&lt;div&gt;DB&lt;/div&gt;" style="shape=cylinder3;whiteSpace=wrap;html=1;boundedLbl=1;backgroundOutline=1;size=15;" vertex="1" parent="1">
          <mxGeometry x="590" y="50" width="60" height="80" as="geometry" />
        </mxCell>
        <mxCell id="_VE5QZipBekw-OrBoyfd-24" value="" style="edgeStyle=orthogonalEdgeStyle;rounded=0;orthogonalLoop=1;jettySize=auto;html=1;entryX=0.51;entryY=1;entryDx=0;entryDy=0;entryPerimeter=0;" edge="1" parent="1" source="_VE5QZipBekw-OrBoyfd-7" target="_VE5QZipBekw-OrBoyfd-17">
          <mxGeometry relative="1" as="geometry">
            <mxPoint x="190" y="230" as="sourcePoint" />
            <mxPoint x="310" y="120" as="targetPoint" />
          </mxGeometry>
        </mxCell>
        <mxCell id="_VE5QZipBekw-OrBoyfd-30" value="Login" style="edgeLabel;html=1;align=center;verticalAlign=middle;resizable=0;points=[];" vertex="1" connectable="0" parent="_VE5QZipBekw-OrBoyfd-24">
          <mxGeometry x="0.4527" y="2" relative="1" as="geometry">
            <mxPoint x="-27" y="2" as="offset" />
          </mxGeometry>
        </mxCell>
        <mxCell id="_VE5QZipBekw-OrBoyfd-26" style="edgeStyle=orthogonalEdgeStyle;rounded=0;orthogonalLoop=1;jettySize=auto;html=1;entryX=0.423;entryY=1.033;entryDx=0;entryDy=0;entryPerimeter=0;" edge="1" parent="1" source="_VE5QZipBekw-OrBoyfd-17" target="_VE5QZipBekw-OrBoyfd-10">
          <mxGeometry relative="1" as="geometry" />
        </mxCell>
        <mxCell id="_VE5QZipBekw-OrBoyfd-17" value="&lt;div&gt;Encryption&lt;/div&gt;" style="text;html=1;align=center;verticalAlign=middle;resizable=0;points=[];autosize=1;strokeColor=none;fillColor=none;" vertex="1" parent="1">
          <mxGeometry x="290" y="150" width="80" height="30" as="geometry" />
        </mxCell>
        <mxCell id="_VE5QZipBekw-OrBoyfd-27" value="" style="edgeStyle=orthogonalEdgeStyle;rounded=0;orthogonalLoop=1;jettySize=auto;html=1;" edge="1" parent="1" source="_VE5QZipBekw-OrBoyfd-10" target="_VE5QZipBekw-OrBoyfd-16">
          <mxGeometry relative="1" as="geometry">
            <mxPoint x="400" y="90" as="sourcePoint" />
            <mxPoint x="590" y="90" as="targetPoint" />
          </mxGeometry>
        </mxCell>
        <mxCell id="_VE5QZipBekw-OrBoyfd-16" value="&lt;div&gt;Data&lt;/div&gt;" style="text;html=1;align=center;verticalAlign=middle;resizable=0;points=[];autosize=1;strokeColor=none;fillColor=none;" vertex="1" parent="1">
          <mxGeometry x="460" y="75" width="50" height="30" as="geometry" />
        </mxCell>
        <mxCell id="_VE5QZipBekw-OrBoyfd-28" value="&lt;div&gt;Encryption&lt;/div&gt;" style="text;html=1;align=center;verticalAlign=middle;resizable=0;points=[];autosize=1;strokeColor=none;fillColor=none;" vertex="1" parent="1">
          <mxGeometry x="450" y="100" width="80" height="30" as="geometry" />
        </mxCell>
      </root>
    </mxGraphModel>
  </diagram>
</mxfile>
